HIERARCHY
ROOT Hips
{
	OFFSET 0.00000 0.00000 0.00000
	CHANNELS 6 Xposition Yposition Zposition Zrotation Yrotation Xrotation 
	JOINT LHipJoint
	{
		OFFSET 0 0 0
		CHANNELS 3 Zrotation Yrotation Xrotation
		JOINT LeftUpLeg
		{
			OFFSET 1.38615 -1.80049 0.80104
			CHANNELS 3 Zrotation Yrotation Xrotation
			JOINT LeftLeg
			{
				OFFSET 2.50172 -6.87341 0.00000
				CHANNELS 3 Zrotation Yrotation Xrotation
				JOINT LeftFoot
				{
					OFFSET 2.67523 -7.35014 0.00000
					CHANNELS 3 Zrotation Yrotation Xrotation
					JOINT LeftToeBase
					{
						OFFSET 0.17446 -0.47932 2.13155
						CHANNELS 3 Zrotation Yrotation Xrotation
						End Site
						{
							OFFSET 0.00000 -0.00000 1.10023
						}
					}
				}
			}
		}
	}
	JOINT RHipJoint
	{
		OFFSET 0 0 0
		CHANNELS 3 Zrotation Yrotation Xrotation
		JOINT RightUpLeg
		{
			OFFSET -1.18047 -1.80049 0.80104
			CHANNELS 3 Zrotation Yrotation Xrotation
			JOINT RightLeg
			{
				OFFSET -2.59789 -7.13765 0.00000
				CHANNELS 3 Zrotation Yrotation Xrotation
				JOINT RightFoot
				{
					OFFSET -2.62125 -7.20183 0.00000
					CHANNELS 3 Zrotation Yrotation Xrotation
					JOINT RightToeBase
					{
						OFFSET -0.31287 -0.85960 2.07814
						CHANNELS 3 Zrotation Yrotation Xrotation
						End Site
						{
							OFFSET -0.00000 -0.00000 1.11766
						}
					}
				}
			}
		}
	}
	JOINT LowerBack
	{
		OFFSET 0 0 0
		CHANNELS 3 Zrotation Yrotation Xrotation
		JOINT Spine
		{
			OFFSET -0.01587 2.16157 -0.12309
			CHANNELS 3 Zrotation Yrotation Xrotation
			JOINT Spine1
			{
				OFFSET 0.04727 2.16674 -0.03569
				CHANNELS 3 Zrotation Yrotation Xrotation
				JOINT Neck
				{
					OFFSET 0 0 0
					CHANNELS 3 Zrotation Yrotation Xrotation
					JOINT Neck1
					{
						OFFSET -0.08586 1.60335 0.32783
						CHANNELS 3 Zrotation Yrotation Xrotation
						JOINT Head
						{
							OFFSET 0.07583 1.65857 -0.31618
							CHANNELS 3 Zrotation Yrotation Xrotation
							End Site
							{
								OFFSET 0.03386 1.69434 -0.14584
							}
						}
					}
				}
				JOINT LeftShoulder
				{
					OFFSET 0 0 0
					CHANNELS 3 Zrotation Yrotation Xrotation
					JOINT LeftArm
					{
						OFFSET 3.17393 1.01901 -0.52897
						CHANNELS 3 Zrotation Yrotation Xrotation
						JOINT LeftForeArm
						{
							OFFSET 5.25287 -0.00000 -0.00000
							CHANNELS 3 Zrotation Yrotation Xrotation
							JOINT LeftHand
							{
								OFFSET 3.51014 -0.00000 0.00000
								CHANNELS 3 Zrotation Yrotation Xrotation
								JOINT LeftFingerBase
								{
									OFFSET 0 0 0
									CHANNELS 3 Zrotation Yrotation Xrotation
									JOINT LeftHandIndex1
									{
										OFFSET 0.70618 -0.00000 -0.00000
										CHANNELS 3 Zrotation Yrotation Xrotation
										End Site
										{
											OFFSET 0.56934 -0.00000 -0.00000
										}
									}
								}
								JOINT LThumb
								{
									OFFSET 0 0 0
									CHANNELS 3 Zrotation Yrotation Xrotation
									End Site
									{
										OFFSET 0.57803 -0.00000 0.57803
									}
								}
							}
						}
					}
				}
				JOINT RightShoulder
				{
					OFFSET 0 0 0
					CHANNELS 3 Zrotation Yrotation Xrotation
					JOINT RightArm
					{
						OFFSET -2.99471 1.26495 -0.61125
						CHANNELS 3 Zrotation Yrotation Xrotation
						JOINT RightForeArm
						{
							OFFSET -5.28721 -0.00000 -0.00000
							CHANNELS 3 Zrotation Yrotation Xrotation
							JOINT RightHand
							{
								OFFSET -3.50544 -0.00000 0.00000
								CHANNELS 3 Zrotation Yrotation Xrotation
								JOINT RightFingerBase
								{
									OFFSET 0 0 0
									CHANNELS 3 Zrotation Yrotation Xrotation
									JOINT RightHandIndex1
									{
										OFFSET -0.88500 -0.00000 -0.00000
										CHANNELS 3 Zrotation Yrotation Xrotation
										End Site
										{
											OFFSET -0.71351 -0.00000 -0.00000
										}
									}
								}
								JOINT RThumb
								{
									OFFSET 0 0 0
									CHANNELS 3 Zrotation Yrotation Xrotation
									End Site
									{
										OFFSET -0.72440 -0.00000 0.72440
									}
								}
							}
						}
					}
				}
			}
		}
	}
}
MOTION
Frames: 8
Frame Time: 0.25
0.00 0.00 0.00 0 0 0 0 0 0 -21 0 0 0 0 0 0 0 0 0 0 0 0 0 0 21 0 0 0 0 0 0 0 0 0 0 0 0 0 0 0 0 0 0 0 0 0 0 -16 0 0 21 0 0 11 0 0 0 -8 0 0 0 0 0 0 0 0 0 0 0 0 0 0 0 0 0 0 0 0 8 0 0 0 0 0 0 0 0 0 0 0 0 0 0 0 0 0
0.00 0.00 0.00 -176.2210 4.5557 -167.6570 0.0000 0.0000 0.0000 -17.8015 0.7408 -25.7033 0.6644 5.2128 14.5164 -0.1099 -6.1965 0.1383 0.2909 -3.4682 -9.5851 0.0000 0.0000 0.0000 21.4358 -0.3134 -10.8708 -5.6431 -14.0734 43.5322 0.1493 7.3553 -0.2113 -0.1445 2.4501 -6.7513 -2.3868 2.5352 0.4079 0.6016 3.4147 1.6034 1.9699 1.6871 1.2401 -9.7127 -4.4069 -20.4790 7.4411 -5.1415 20.1493 3.4756 -2.3385 10.2712 -0.0000 0.0000 0.0000 -84.6596 -1.0461 26.4787 16.9978 -26.8549 -4.0864 -0.0000 -0.0000 2.0503 6.4133 36.6441 3.8380 -7.1250 0.0000 -0.0000 -34.1020 63.5822 -16.3052 -0.0000 0.0000 0.0000 88.9126 2.9933 16.6425 -16.4054 26.0672 -3.8224 0.0000 -0.0000 -5.1349 -12.2464 14.5797 -3.1274 7.1250 -0.0000 -0.0000 10.3607 -15.2389 7.3969
0.00 0.00 0.00 -177.3710 5.6371 -168.5940 0.0000 0.0000 0.0000 -20.3129 2.3732 -22.8746 0.7906 5.6761 15.8473 -0.0254 -6.5898 -3.9392 0.5299 -4.6646 -12.9544 0.0000 0.0000 0.0000 17.8252 0.3433 -20.4240 -9.9825 -17.4000 59.4298 0.0076 -1.7426 -1.4838 -0.2021 2.8951 -7.9867 -3.3405 2.3611 1.0653 -0.0123 3.1749 1.6327 1.8429 1.5680 0.8991 -10.6228 -4.2810 -20.5737 8.1961 -4.8029 19.7500 3.9481 -2.1530 10.1576 -0.0000 0.0000 0.0000 -83.5400 -2.8288 27.1771 18.9017 -29.2964 -4.9827 -0.0000 -0.0000 0.2507 9.7612 35.3331 5.6818 -7.1250 0.0000 -0.0000 -29.1098 63.3774 -13.5561 -0.0000 0.0000 0.0000 89.1477 4.8625 20.3583 -18.4209 28.6928 -4.7496 0.0000 -0.0000 -7.5462 -13.7419 13.2739 -3.2138 7.1250 -0.0000 -0.0000 9.3561 -16.4453 6.4116
0.00 0.00 0.00 -177.2330 5.1834 -168.7530 0.0000 0.0000 0.0000 -20.4680 2.1602 -20.6411 1.2539 7.0991 20.0093 0.2522 -6.2567 -9.3232 0.5264 -4.6496 -12.9118 0.0000 0.0000 0.0000 18.1997 1.7976 -30.3853 -8.6174 -16.5551 54.7575 -0.5072 -6.9267 -17.7424 -0.0215 0.9456 -2.5992 -3.8249 2.0531 1.7131 0.4928 2.7060 1.0956 2.5966 1.3461 -0.0350 -10.2221 -4.0869 -20.5917 8.0790 -4.7790 20.8816 3.8604 -2.1630 10.5507 0.0000 -0.0000 0.0000 -83.5669 -4.0168 26.5375 21.9679 -32.9408 -6.5684 -0.0000 -0.0000 0.3475 4.1284 37.7518 2.5303 -7.1250 0.0000 -0.0000 -37.8030 63.8482 -18.5558 0.0000 -0.0000 0.0000 88.7271 5.7166 23.6430 -21.9131 32.8787 -6.5386 0.0000 -0.0000 -9.4063 -13.2094 13.0573 -3.0355 7.1250 -0.0000 -0.0000 9.7244 -16.7013 6.6164
0.00 0.00 0.00 -177.8440 2.1382 -166.4870 0.0000 0.0000 0.0000 -20.5653 3.8484 -15.5893 0.8120 5.7505 16.0623 0.4149 -7.4516 -11.8359 0.7488 -5.5273 -15.4188 0.0000 0.0000 0.0000 19.7536 7.4004 -33.8093 -2.3569 -9.5730 27.6048 -0.2959 -0.4014 -10.4280 -0.0046 -0.4363 1.1987 -4.0536 1.0660 0.4622 1.0323 1.4383 1.2318 3.3375 0.6859 0.8808 -10.0165 -4.5347 -21.9156 8.5909 -5.4664 21.0701 3.9043 -2.3609 10.9517 -0.0000 0.0000 0.0000 -83.9288 -3.6815 26.6709 20.8866 -31.6957 -5.9902 -0.0000 -0.0000 1.6112 6.5544 36.8842 3.9450 -7.1250 0.0000 -0.0000 -34.2534 63.8143 -16.5708 -0.0000 0.0000 0.0000 88.9805 6.6127 24.1615 -19.3555 29.8580 -5.2066 0.0000 -0.0000 -8.1837 -13.5791 12.9836 -3.1062 7.1250 -0.0000 -0.0000 9.4712 -16.7502 6.4289
0.00 0.00 0.00 -178.5020 -1.1081 -168.8880 0.0000 0.0000 0.0000 -15.9769 1.7655 -12.7309 2.8715 10.4841 30.5592 -0.0040 -10.1115 -7.0232 1.6385 -8.0685 -22.9224 0.0000 0.0000 0.0000 23.1755 5.6121 -22.5804 -2.3935 -9.6416 27.8236 -0.7442 -4.5626 -18.5799 -0.0011 0.2095 -0.5756 -2.1099 0.7089 -0.5719 2.1356 0.9073 1.1775 3.3946 0.3997 1.4609 -10.3480 -4.8843 -21.6506 9.1318 -6.5179 23.8164 4.0355 -2.9090 12.0872 -0.0000 -0.0000 0.0000 -86.4316 0.7504 24.4277 15.6761 -25.0795 -3.5075 -0.0000 -0.0000 6.7946 1.4624 36.2876 0.8656 -7.1250 0.0000 -0.0000 -38.6010 62.0111 -17.3506 -0.0000 -0.0000 0.0000 88.0941 4.9187 15.1770 -13.7639 22.3961 -2.7375 0.0000 -0.0000 -3.0707 -12.3757 12.7904 -2.7810 7.1250 -0.0000 -0.0000 10.3027 -17.0253 6.9487
0.00 0.00 0.00 -176.6700 -6.6487 -168.6150 0.0000 0.0000 0.0000 -12.4071 -3.4101 -6.6058 0.7860 5.6598 15.8004 0.7585 -6.6585 -15.5519 0.4055 -4.0880 -11.3243 0.0000 0.0000 0.0000 22.8662 4.4417 -19.8179 -3.1725 -10.9691 32.1759 -1.6097 -1.0087 -24.3713 -0.2987 3.5141 -9.7136 -4.1294 0.7859 -3.3869 8.8607 0.3207 1.8973 11.8972 -0.3533 3.8212 -12.4200 -4.6749 -21.1370 6.7990 -5.4144 27.2187 3.7313 -3.0934 13.2062 -0.0000 0.0000 0.0000 -97.8498 1.4523 39.0622 22.0245 -33.0047 -6.5992 -0.0000 -0.0000 0.1226 4.0487 37.4890 2.4667 -7.1250 0.0000 -0.0000 -37.5417 63.6221 -18.2130 -0.0000 0.0000 0.0000 79.1566 4.3861 14.3371 -17.1093 27.0017 -4.1369 0.0000 -0.0000 -9.1360 -17.4511 11.8230 -3.6853 7.1250 -0.0000 -0.0000 6.7904 -17.6559 4.4424
0.00 0.00 0.00 -177.6660 -25.9940 -173.5200 0.0000 0.0000 0.0000 -12.7367 -7.0448 -10.0958 0.8509 5.8831 16.4457 -1.4899 -23.3073 -2.1561 0.0131 0.7388 2.0303 0.0000 0.0000 0.0000 21.9168 -3.2922 -19.4917 -2.8569 -10.4597 30.4785 -0.3399 -14.3658 -23.7718 -0.4029 4.0750 -11.2876 -5.1292 2.4678 -1.9451 7.6897 2.9729 1.4636 11.1986 1.2201 1.9346 -5.5513 4.8907 -21.6891 -5.5044 9.9618 26.4709 0.4335 2.7408 12.4759 0.0000 -0.0000 0.0000 -97.7090 -1.6559 41.8048 18.2696 -28.5009 -4.6772 -0.0000 -0.0000 2.8652 3.6747 37.5423 2.2411 -7.1250 0.0000 -0.0000 -37.9818 63.5633 -18.4062 0.0000 -0.0000 0.0000 80.4986 2.1691 13.7833 -13.7743 22.4111 -2.7415 0.0000 -0.0000 -5.3415 -16.5293 10.8460 -3.1962 7.1250 -0.0000 -0.0000 7.4365 -18.7309 4.6942
